<svg xmlns="http://www.w3.org/2000/svg" fill="none" viewBox="0 0 128 128"><g id="mostly-clear-night-snow__mostly-clear-night-snow" clip-path="url(#mostly-clear-night-snow__clip0_1858_8890)"><g id="mostly-clear-night-snow__Sky"><g id="mostly-clear-night-snow__Moon"><path id="mostly-clear-night-snow__Moon_2" fill="url(#mostly-clear-night-snow__paint0_linear_1858_8890)" stroke="#72b9d5" stroke-linecap="round" stroke-linejoin="round" d="M52.253 42.587c-3.315 14.614 9.42 28.515 24.068 27.44C73.652 78.963 65.298 85.5 55.368 85.5 43.285 85.5 33.5 75.835 33.5 63.93c0-10.863 8.147-19.85 18.753-21.343"/><animateTransform attributeName="transform" begin="0s" calcMode="spline" dur="3s" keySplines=".42 0 .58 1; .42 0 .58 1" repeatCount="indefinite" type="rotate" values="-6 54.9 64.0;6 54.9 64.0;-6 54.9 64.0"/></g><g id="mostly-clear-night-snow__Clouds"><g id="mostly-clear-night-snow__Cloud"><path id="mostly-clear-night-snow__Cloud_2" fill="url(#mostly-clear-night-snow__paint1_linear_1858_8890)" stroke="#e6effc" stroke-miterlimit="10" d="M58.014 59.889c3.322-5.529 10.351-7.921 16.294-5.364 5.984 2.575 9.206 9.392 7.678 15.698l-.156.647.665-.03c4.915-.22 9.004 3.93 9.004 8.82 0 4.737-3.854 8.839-8.616 8.839-12.371-.011-24.747.001-37.116.001-4.784.001-8.79-3.869-9.227-8.612-.436-4.752 2.797-9.317 7.5-10.23l.478-.094-.08-.48c-.558-3.337.853-6.826 3.625-8.764 2.734-1.911 6.422-2.019 9.26-.263l.43.265z"/></g><animateTransform attributeName="transform" begin="0s" calcMode="spline" dur="3s" keySplines=".42 0 .58 1; .42 0 .58 1" repeatCount="indefinite" type="translate" values="0 0;0 -3;0 0"/></g></g><g id="mostly-clear-night-snow__Precipitation"><g id="mostly-clear-night-snow__Snowflakes"><path id="mostly-clear-night-snow__Snowflake 1" fill="#86c3db" d="m52.578 90.366-1.205-.689a2.9 2.9 0 0 0-.002-1.353l1.207-.69a.83.83 0 0 0 .309-1.141.85.85 0 0 0-1.153-.306l-1.206.69a2.9 2.9 0 0 0-1.184-.677v-1.38A.85.85 0 0 0 48.5 84a.843.843 0 0 0-.844.82v1.38a2.96 2.96 0 0 0-1.185.674l-1.205-.689a.848.848 0 0 0-1.259.616.83.83 0 0 0 .415.832l1.204.689c-.106.445-.105.909.003 1.353l-1.207.69a.83.83 0 0 0-.415.832.83.83 0 0 0 .62.7.85.85 0 0 0 .64-.084l1.205-.69c.334.318.74.55 1.184.675v1.382a.85.85 0 0 0 .844.82.843.843 0 0 0 .844-.82v-1.383c.441-.129.847-.36 1.184-.673l1.206.69a.847.847 0 0 0 1.259-.616.83.83 0 0 0-.415-.832m-4.712-.28a1.24 1.24 0 0 1-.622-1.25 1.25 1.25 0 0 1 .93-1.048 1.27 1.27 0 0 1 1.329.445 1.25 1.25 0 0 1 .093 1.393 1.28 1.28 0 0 1-1.73.46"><animateTransform attributeName="transform" begin="-0.8s" calcMode="spline" dur="1s" keySplines=".42 0 1 1" repeatCount="indefinite" type="translate" values="0 0;0 20"/><animate attributeName="opacity" begin="-0.8s" dur="1s" keyTimes="0;0.15;0.85;1" repeatCount="indefinite" values="0;1;1;0"/></path><path id="mostly-clear-night-snow__Snowflake 2" fill="#86c3db" d="m67.578 90.366-1.204-.689a2.9 2.9 0 0 0-.003-1.353l1.207-.69a.83.83 0 0 0 .309-1.141.85.85 0 0 0-1.153-.306l-1.206.69a2.9 2.9 0 0 0-1.184-.677v-1.38A.85.85 0 0 0 63.5 84a.843.843 0 0 0-.844.82v1.38a2.96 2.96 0 0 0-1.185.674l-1.205-.689a.848.848 0 0 0-1.259.616.83.83 0 0 0 .415.832l1.204.689c-.106.445-.105.909.003 1.353l-1.207.69a.83.83 0 0 0-.415.832.83.83 0 0 0 .62.7.85.85 0 0 0 .64-.084l1.205-.69c.334.318.74.55 1.184.675v1.382a.85.85 0 0 0 .844.82.843.843 0 0 0 .844-.82v-1.383c.441-.129.847-.36 1.184-.673l1.206.69a.847.847 0 0 0 1.259-.616.83.83 0 0 0-.415-.832m-4.712-.28a1.24 1.24 0 0 1-.622-1.25 1.25 1.25 0 0 1 .93-1.048 1.27 1.27 0 0 1 1.329.445 1.25 1.25 0 0 1 .093 1.393 1.28 1.28 0 0 1-1.73.46"><animateTransform attributeName="transform" begin="-0.30000000000000004s" calcMode="spline" dur="1s" keySplines=".42 0 1 1" repeatCount="indefinite" type="translate" values="0 0;0 20"/><animate attributeName="opacity" begin="-0.30000000000000004s" dur="1s" keyTimes="0;0.15;0.85;1" repeatCount="indefinite" values="0;1;1;0"/></path><path id="mostly-clear-night-snow__Snowflake 3" fill="#86c3db" d="m82.578 90.366-1.204-.689a2.9 2.9 0 0 0-.003-1.353l1.207-.69a.83.83 0 0 0 .309-1.141.85.85 0 0 0-1.153-.306l-1.206.69a2.9 2.9 0 0 0-1.184-.677v-1.38A.85.85 0 0 0 78.5 84a.843.843 0 0 0-.844.82v1.38a2.96 2.96 0 0 0-1.185.674l-1.205-.689a.848.848 0 0 0-1.259.616.83.83 0 0 0 .415.832l1.204.689c-.106.445-.105.909.003 1.353l-1.207.69a.83.83 0 0 0-.415.832.83.83 0 0 0 .62.7.85.85 0 0 0 .64-.084l1.205-.69c.334.318.74.55 1.184.675v1.382a.85.85 0 0 0 .844.82.843.843 0 0 0 .844-.82v-1.383c.441-.129.847-.36 1.184-.673l1.206.69a.847.847 0 0 0 1.259-.616.83.83 0 0 0-.415-.832m-4.712-.28a1.24 1.24 0 0 1-.622-1.25 1.25 1.25 0 0 1 .93-1.048 1.27 1.27 0 0 1 1.329.445 1.25 1.25 0 0 1 .093 1.393 1.28 1.28 0 0 1-1.73.46"><animateTransform attributeName="transform" begin="-0.8s" calcMode="spline" dur="1s" keySplines=".42 0 1 1" repeatCount="indefinite" type="translate" values="0 0;0 20"/><animate attributeName="opacity" begin="-0.8s" dur="1s" keyTimes="0;0.15;0.85;1" repeatCount="indefinite" values="0;1;1;0"/></path></g></g></g><defs><linearGradient id="mostly-clear-night-snow__paint0_linear_1858_8890" x1="55" x2="55" y1="42" y2="86" gradientUnits="userSpaceOnUse"><stop stop-color="#86c3db"/><stop offset="1" stop-color="#72b9d5"/></linearGradient><linearGradient id="mostly-clear-night-snow__paint1_linear_1858_8890" x1="64.001" x2="64.001" y1="53" y2="89" gradientUnits="userSpaceOnUse"><stop stop-color="#f3f7fe"/><stop offset="1" stop-color="#e6effc"/></linearGradient><clipPath id="mostly-clear-night-snow__clip0_1858_8890"><rect width="128" height="128" fill="#fff"/></clipPath></defs></svg>